<svg xmlns="http://www.w3.org/2000/svg" width="24" height="24"><path d="M21.799 0H2.201A2.2 2.2 0 000 2.201V21.8A2.2 2.2 0 002.201 24H21.8a2.2 2.2 0 002.2-2.201V2.201A2.2 2.2 0 0021.799 0zm-2.747 14.091c1.439 1.337 1.739 1.987 1.787 2.068.597.989-.661 1.067-.661 1.067l-2.404.034s-.518.102-1.197-.366c-.899-.616-1.747-2.221-2.407-2.011-.67.212-.649 1.656-.649 1.656s.005.255-.147.42c-.166.178-.491.16-.491.16h-1.076s-2.374.196-4.465-1.98C5.062 12.764 3.049 8.08 3.049 8.08s-.116-.295.01-.445c.142-.168.528-.172.528-.172l2.571-.013s.242.042.416.169c.143.105.223.302.223.302s.416 1.052.966 2.003c1.075 1.856 1.575 2.262 1.939 2.063.533-.29.373-2.624.373-2.624s.01-.848-.268-1.225c-.214-.291-.619-.377-.798-.4-.145-.019.092-.355.4-.506.463-.226 1.28-.239 2.247-.229.752.008.969.054 1.262.126.887.214.586 1.041.586 3.024 0 .635-.115 1.528.344 1.825.198.127.68.019 1.884-2.027.572-.97 1-2.11 1-2.11s.094-.203.239-.29c.149-.089.35-.062.35-.062l2.707-.017s.813-.097.944.27c.138.385-.304 1.285-1.41 2.759-1.816 2.418-2.017 2.191-.51 3.59z"/></svg>