<svg fill="#000000" xmlns="http://www.w3.org/2000/svg" viewBox="0 0 24 24" width="24px" height="24px"><path d="M21.799,0H2.201C0.985,0,0,0.985,0,2.201v19.599C0,23.015,0.985,24,2.201,24h19.599C23.015,24,24,23.015,24,21.799V2.201C24,0.985,23.015,0,21.799,0z M19.052,14.091c1.439,1.337,1.739,1.987,1.787,2.068c0.597,0.989-0.661,1.067-0.661,1.067l-2.404,0.034c0,0-0.518,0.102-1.197-0.366c-0.899-0.616-1.747-2.221-2.407-2.011c-0.67,0.212-0.649,1.656-0.649,1.656s0.005,0.255-0.147,0.42c-0.166,0.178-0.491,0.16-0.491,0.16h-1.076c0,0-2.374,0.196-4.465-1.98C5.062,12.764,3.049,8.08,3.049,8.08s-0.116-0.295,0.01-0.445c0.142-0.168,0.528-0.172,0.528-0.172L6.158,7.45c0,0,0.242,0.042,0.416,0.169c0.143,0.105,0.223,0.302,0.223,0.302s0.416,1.052,0.966,2.003c1.075,1.856,1.575,2.262,1.939,2.063c0.533-0.29,0.373-2.624,0.373-2.624s0.01-0.848-0.268-1.225C9.593,7.847,9.188,7.761,9.009,7.738c-0.145-0.019,0.092-0.355,0.4-0.506c0.463-0.226,1.28-0.239,2.247-0.229c0.752,0.008,0.969,0.054,1.262,0.126c0.887,0.214,0.586,1.041,0.586,3.024c0,0.635-0.115,1.528,0.344,1.825c0.198,0.127,0.68,0.019,1.884-2.027c0.572-0.97,1-2.11,1-2.11s0.094-0.203,0.239-0.29c0.149-0.089,0.35-0.062,0.35-0.062l2.707-0.017c0,0,0.813-0.097,0.944,0.27c0.138,0.385-0.304,1.285-1.41,2.759C17.746,12.919,17.545,12.692,19.052,14.091z"/></svg>